<svg width="359" height="119" viewBox="0 0 359 119" fill="none" xmlns="http://www.w3.org/2000/svg">
<path d="M29.0699 47.4669C33.1899 47.4669 36.7499 49.5269 39.1899 54.3069L52.97 47.2769C49.5 38.4669 40.6899 33.3169 29.1699 33.3169C12.1199 33.3169 0.0300293 44.1869 0.0300293 59.4569C0.0300293 74.7269 12.1199 85.7869 29.1699 85.7869C40.6999 85.7869 49.5 80.6369 52.97 71.8269L39.1899 64.7969C36.7499 69.5769 33.1899 71.6369 29.0699 71.6369C22.8899 71.6369 18.01 67.3269 18.01 59.4569C18.01 51.5869 22.8799 47.4669 29.0699 47.4669Z" fill="#261957"/>
<path d="M72.83 40.2469V34.1569H55.87V84.9469H73.6699V61.6169C73.6699 52.7169 78.64 49.0569 85.85 49.0569C87.16 49.0569 88.29 49.1469 89.88 49.3369V33.3169C82.38 33.3169 76.48 35.6569 72.83 40.2469Z" fill="#261957"/>
<path d="M159.51 33.3169C152.2 33.3169 145.92 36.2269 141.89 41.2769C138.33 35.8369 132.43 33.3169 125.49 33.3169C119.49 33.3169 114.15 35.3769 110.31 39.4969V34.1569H93.35V84.9469H111.15V59.7369C111.15 51.8669 114.9 48.3969 120.15 48.3969C124.93 48.3969 127.83 51.4869 127.83 58.7969V84.9369H145.63V59.7269C145.63 51.8569 149.38 48.3869 154.53 48.3869C159.22 48.3869 162.21 51.4769 162.21 58.7869V84.9269H180.01V55.8769C180.01 40.1369 171.3 33.2969 159.49 33.2969L159.51 33.3169Z" fill="#261957"/>
<path d="M227.1 30.1669C227.67 31.9369 228.38 33.6569 229.03 35.3969L229.26 35.3769C229.38 35.1669 229.51 34.9669 229.61 34.7569C230.24 33.4169 230.79 32.0369 231.51 30.7469C233.71 26.7969 236.74 23.5169 240.21 20.6569C250.08 12.5469 261.5 7.9369 274.04 5.9469C277.67 5.3669 281.34 5.1969 285.02 5.2069C290.59 5.2169 296.11 5.7669 301.55 6.9569C307.51 8.2569 313.24 10.1969 318.42 13.5169C321.47 15.4769 324.33 17.6769 326.38 20.7569C326.61 21.1069 327.01 21.3469 327.32 21.6369L327.58 21.4369C327.35 20.9869 327.17 20.5069 326.88 20.0869C322.45 13.6869 316.46 9.2169 309.46 5.9569C301.43 2.2269 292.94 0.446892 284.16 0.0468919C280.63 -0.113108 277.06 0.166897 273.52 0.426897C266.73 0.926897 260.13 2.3669 253.72 4.7069C245.56 7.6969 238.13 11.8969 231.59 17.6369C231.02 18.1369 230.36 18.5769 229.68 18.9169C228.49 19.5069 227.51 19.1969 226.81 18.0769C226.47 17.5369 226.23 16.9169 225.96 16.3369C225.74 15.8769 225.54 15.4069 225.33 14.9369C225.07 15.2969 224.9 15.6369 224.87 15.9869C224.79 16.9569 224.67 17.9269 224.74 18.8869C224.99 22.7569 225.92 26.4969 227.11 30.1669H227.1Z" fill="#6D71F9"/>
<path d="M330.33 88.3469C329.76 86.5769 329.05 84.8569 328.4 83.1169L328.17 83.1369C328.05 83.3469 327.92 83.5469 327.82 83.7569C327.19 85.0969 326.64 86.4769 325.92 87.7669C323.72 91.7169 320.69 94.9969 317.22 97.8569C307.35 105.967 295.93 110.577 283.39 112.567C279.76 113.147 276.09 113.317 272.41 113.307C266.84 113.297 261.32 112.747 255.88 111.557C249.92 110.257 244.19 108.317 239.01 104.997C235.96 103.037 233.1 100.837 231.05 97.7569C230.82 97.4069 230.42 97.1669 230.11 96.8769L229.85 97.0769C230.08 97.5269 230.26 98.0069 230.55 98.4269C234.98 104.827 240.97 109.297 247.97 112.557C256 116.287 264.49 118.067 273.27 118.467C276.8 118.627 280.37 118.347 283.91 118.087C290.7 117.587 297.3 116.147 303.71 113.807C311.87 110.817 319.3 106.617 325.84 100.877C326.41 100.377 327.07 99.9369 327.75 99.5969C328.94 99.0069 329.92 99.3169 330.62 100.437C330.96 100.977 331.2 101.597 331.47 102.177C331.69 102.637 331.89 103.107 332.1 103.577C332.36 103.217 332.53 102.877 332.56 102.527C332.64 101.557 332.76 100.587 332.69 99.6269C332.44 95.7569 331.51 92.0169 330.32 88.3469H330.33Z" fill="#6D71F9"/>
<path d="M212.64 72.0169C209.45 72.0169 207.3 69.9569 207.3 66.2069V49.3369H218.92V36.0269H207.3V22.8169H189.5V36.0269H182.1V49.3369H189.5V66.3869C189.5 79.4169 197.09 85.7869 210.12 85.7869C214.81 85.7869 219.4 84.8469 222.49 82.8869L218.09 70.4269C216.59 71.4569 214.62 72.0169 212.65 72.0169H212.64Z" fill="#6D71F9"/>
<path d="M278.15 59.4569C278.15 44.1869 266.25 33.3169 249.48 33.3169C232.71 33.3169 220.81 44.1869 220.81 59.4569C220.81 74.7269 232.9 85.7869 249.48 85.7869C266.06 85.7869 278.15 74.8269 278.15 59.4569ZM238.79 59.4569C238.79 51.7769 243.48 47.4669 249.47 47.4669C255.46 47.4669 260.15 51.7769 260.15 59.4569C260.15 67.1369 255.56 71.6369 249.47 71.6369C243.38 71.6369 238.79 67.2369 238.79 59.4569Z" fill="#6D71F9"/>
<path d="M308.04 33.3169C291.45 33.3169 279.37 44.1869 279.37 59.4569C279.37 74.7269 291.46 85.7869 308.04 85.7869C324.62 85.7869 336.71 74.8269 336.71 59.4569C336.71 44.0869 324.81 33.3169 308.04 33.3169ZM308.04 71.6469C302.04 71.6469 297.36 67.2469 297.36 59.4669C297.36 51.6869 302.05 47.4769 308.04 47.4769C314.03 47.4769 318.72 51.7869 318.72 59.4669C318.72 67.1469 314.13 71.6469 308.04 71.6469Z" fill="#6D71F9"/>
<path d="M358.92 15.4169H341.12V84.9469H358.92V15.4169Z" fill="#6D71F9"/>
<path d="M53.87 110.187C50.62 110.187 47.38 110.187 44.13 110.187C40.52 110.187 36.8999 110.187 33.2899 110.197C30.5099 110.197 27.73 110.197 24.95 110.197C24.87 110.197 24.79 110.197 24.72 110.197C24.65 110.197 24.61 110.157 24.61 110.097C24.61 110.067 24.61 110.037 24.61 110.007C24.61 109.227 24.61 108.437 24.61 107.657C24.61 107.597 24.61 107.537 24.62 107.487C24.62 107.467 24.6399 107.447 24.6599 107.447C24.7099 107.447 24.7599 107.437 24.7999 107.437C25.1399 107.437 25.4799 107.437 25.8199 107.437C26.6599 107.437 27.51 107.437 28.35 107.437C31.93 107.437 35.52 107.437 39.1 107.437H45.75C48 107.437 50.24 107.437 52.49 107.437C54.7 107.437 56.91 107.437 59.12 107.437C61.38 107.437 63.63 107.437 65.89 107.437C68.08 107.437 70.27 107.437 72.46 107.437C74.74 107.437 77.0099 107.437 79.2899 107.437C80.2799 107.437 81.27 107.437 82.25 107.437C82.32 107.437 82.3899 107.437 82.45 107.437C82.5499 107.437 82.64 107.417 82.73 107.367C82.88 107.277 83.0299 107.187 83.1599 107.067C83.4199 106.837 83.56 106.547 83.61 106.207C83.63 106.067 83.6199 105.917 83.5699 105.777C83.4699 105.507 83.3899 105.227 83.2899 104.947C82.8499 103.697 82.37 102.457 81.9 101.227C81.1 99.1769 80.3 97.1369 79.51 95.0869C79.49 95.0369 79.47 94.9769 79.45 94.9269C79.38 94.7469 79.4199 94.7369 79.5699 94.7369C79.6299 94.7369 79.69 94.7369 79.74 94.7369H82.33C82.41 94.7369 82.4899 94.7369 82.5599 94.7369C82.6099 94.7369 82.6499 94.7569 82.6699 94.8069C82.6899 94.8669 82.72 94.9369 82.74 94.9969C83.49 96.9369 84.25 98.8769 85 100.817C85.09 101.047 85.18 101.267 85.27 101.487C85.27 101.507 85.2899 101.517 85.3099 101.527H85.33C85.36 101.457 85.3999 101.387 85.4299 101.317C85.7299 100.547 86.03 99.7869 86.33 99.0169C86.86 97.6669 87.3799 96.3069 87.9099 94.9569C87.9299 94.9069 87.96 94.8469 87.98 94.7969C87.99 94.7669 88.0199 94.7469 88.0499 94.7469C88.0899 94.7469 88.1299 94.7469 88.1699 94.7469C89.1399 94.7469 90.11 94.7469 91.08 94.7469C91.11 94.7469 91.1399 94.7469 91.1699 94.7469C91.2399 94.7469 91.27 94.7969 91.24 94.8669C91.22 94.9269 91.1899 94.9969 91.1699 95.0569C90.9699 95.5569 90.77 96.0669 90.58 96.5669C89.56 99.1569 88.54 101.757 87.53 104.347C87.1 105.447 86.67 106.547 86.24 107.647C86.14 107.907 86.03 108.167 85.88 108.407C85.29 109.347 84.44 109.907 83.36 110.107C83.17 110.147 82.98 110.157 82.78 110.157C82.67 110.157 82.57 110.157 82.46 110.157H80.1899C75.1099 110.157 70.04 110.157 64.96 110.157C61.46 110.157 57.97 110.157 54.47 110.157H53.89L53.87 110.187Z" fill="#261957"/>
<path d="M26.1 89.4369H28.13C28.21 89.4369 28.29 89.4369 28.36 89.4369C28.4 89.4369 28.42 89.4669 28.45 89.4969C28.48 89.5469 28.51 89.5869 28.51 89.6569C28.51 89.9169 28.51 90.1769 28.51 90.4369C28.51 91.6869 28.51 92.9369 28.52 94.1869C28.52 94.6669 28.52 95.1569 28.52 95.6369C28.52 95.6969 28.5199 95.7569 28.5399 95.8069C28.5399 95.8169 28.58 95.8369 28.59 95.8269C28.65 95.7769 28.71 95.7269 28.76 95.6769C29.08 95.3669 29.45 95.1069 29.85 94.9169C30.31 94.6969 30.7899 94.5769 31.2999 94.5269C31.6299 94.4969 31.9599 94.4969 32.2899 94.5269C32.9099 94.5769 33.49 94.7469 34.03 95.0469C35.32 95.7669 36.2 96.8369 36.63 98.2569C36.78 98.7469 36.86 99.2569 36.88 99.7769C36.89 100.097 36.89 100.417 36.87 100.737C36.77 102.007 36.34 103.147 35.51 104.127C35.25 104.437 34.94 104.707 34.61 104.947C33.96 105.397 33.24 105.697 32.47 105.887C32.05 105.987 31.63 106.037 31.2 106.047C30.05 106.057 28.9999 105.757 28.0499 105.107C26.9799 104.377 26.24 103.397 25.83 102.177C25.66 101.667 25.54 101.157 25.47 100.627C25.4 100.077 25.36 99.5269 25.36 98.9769C25.36 97.3169 25.37 95.6669 25.38 94.0069C25.38 93.2969 25.3999 92.5969 25.4099 91.8869C25.4099 91.8069 25.4099 91.7269 25.4099 91.6569C25.4099 91.6369 25.37 91.6069 25.35 91.6069C25.28 91.6069 25.21 91.6069 25.15 91.6069C24.76 91.6069 24.37 91.6069 23.99 91.6069C23.94 91.6069 23.89 91.6069 23.84 91.6069C23.76 91.6069 23.73 91.5769 23.73 91.5069C23.73 91.4669 23.73 91.4269 23.73 91.3869C23.73 90.8169 23.73 90.2469 23.73 89.6769C23.73 89.6269 23.73 89.5769 23.73 89.5369C23.73 89.5169 23.7699 89.4769 23.7899 89.4769C23.8699 89.4769 23.94 89.4769 24.02 89.4769C24.71 89.4769 25.4 89.4769 26.08 89.4769L26.1 89.4369ZM33.75 100.327C33.75 99.9569 33.71 99.5969 33.6 99.2369C33.4 98.5869 33.04 98.0469 32.51 97.6369C32.07 97.2969 31.57 97.1369 31.02 97.1569C30.44 97.1669 29.93 97.3769 29.5 97.7769C29.06 98.1869 28.77 98.6769 28.61 99.2469C28.44 99.8869 28.4299 100.527 28.5599 101.177C28.6799 101.747 28.94 102.247 29.36 102.667C29.86 103.167 30.4599 103.407 31.1699 103.377C31.5799 103.357 31.9499 103.257 32.2999 103.047C32.8899 102.687 33.3099 102.187 33.5499 101.537C33.6899 101.147 33.74 100.747 33.75 100.337" fill="#261957"/>
<path d="M2.39001 89.4369H4.40002C4.48002 89.4369 4.55 89.4369 4.63 89.4369C4.69 89.4369 4.78003 89.5169 4.78003 89.5869C4.78003 89.6469 4.78003 89.7069 4.78003 89.7569C4.78003 90.5669 4.78003 91.3869 4.78003 92.1969C4.78003 93.3369 4.77992 94.4869 4.78992 95.6269C4.78992 95.6869 4.78993 95.7469 4.79993 95.7969C4.79993 95.8069 4.82997 95.8169 4.83997 95.8269C4.83997 95.8269 4.85999 95.8269 4.87 95.8269C4.92 95.7769 4.97002 95.7369 5.02002 95.6869C5.58002 95.1469 6.22998 94.7869 6.97998 94.6169C7.49998 94.4969 8.02995 94.4669 8.56995 94.5169C9.11995 94.5669 9.63 94.7069 10.13 94.9469C10.59 95.1669 11 95.4569 11.37 95.7969C12.22 96.5769 12.76 97.5269 13.01 98.6469C13.09 99.0169 13.15 99.3869 13.15 99.7669C13.15 100.067 13.16 100.367 13.15 100.667C13.07 101.907 12.66 103.027 11.87 103.997C11.57 104.367 11.2199 104.687 10.8199 104.957C10.0799 105.447 9.26 105.767 8.38 105.927C8.08 105.977 7.77999 106.017 7.48999 106.017C6.44999 106.037 5.47996 105.787 4.57996 105.247C3.37996 104.517 2.55998 103.497 2.09998 102.167C1.92998 101.657 1.80999 101.147 1.73999 100.617C1.66999 100.087 1.63 99.5569 1.63 99.0269C1.63 97.2569 1.63991 95.4869 1.65991 93.7069C1.65991 93.1269 1.67994 92.5469 1.68994 91.9669C1.68994 91.8669 1.68994 91.7769 1.68994 91.6769C1.68994 91.6069 1.64996 91.5769 1.57996 91.5769C1.49996 91.5769 1.42998 91.5769 1.34998 91.5769C1.00998 91.5769 0.669956 91.5769 0.329956 91.5769C0.249956 91.5769 0.169976 91.5769 0.0999756 91.5769C0.0399756 91.5769 0.01 91.5469 0 91.4969C0 91.4769 0 91.4569 0 91.4369C0 90.8269 0 90.2169 0 89.6069C0 89.5669 9.76585e-06 89.5269 0.0100098 89.4969C0.0100098 89.4769 0.0299268 89.4669 0.0499268 89.4569C0.0699268 89.4569 0.0899854 89.4469 0.109985 89.4469C0.189985 89.4469 0.259966 89.4469 0.339966 89.4469H2.37L2.39001 89.4369ZM10.03 100.277C10.03 99.8169 9.98996 99.4869 9.82996 99.0369C9.59996 98.3969 9.22002 97.8769 8.65002 97.5069C8.06002 97.1169 7.41998 97.0269 6.72998 97.2169C6.36998 97.3169 6.05003 97.4969 5.78003 97.7569C5.28003 98.2169 4.96997 98.7869 4.83997 99.4569C4.72997 100.007 4.72997 100.557 4.83997 101.097C4.94997 101.677 5.21 102.187 5.63 102.617C6.13 103.127 6.73996 103.377 7.45996 103.347C7.87996 103.327 8.25998 103.217 8.60999 102.997C9.18999 102.637 9.59997 102.137 9.83997 101.497C9.97997 101.107 10.03 100.707 10.03 100.277Z" fill="#261957"/>
<path d="M68.3199 97.4469C68.3099 98.2869 68.2999 99.1269 68.2899 99.9769C68.2899 100.157 68.2899 100.347 68.3099 100.527C68.3299 100.867 68.3299 101.207 68.3399 101.547C68.3399 101.687 68.3399 101.817 68.3399 101.957C68.3399 102.067 68.3399 102.167 68.2899 102.267C68.2699 102.297 68.27 102.347 68.27 102.377C68.27 102.807 68.27 103.227 68.27 103.657C68.27 103.717 68.2999 103.747 68.3499 103.757C68.4299 103.757 68.4999 103.757 68.5799 103.757C68.9699 103.757 69.3499 103.757 69.7399 103.757C69.7999 103.757 69.8599 103.757 69.9099 103.757C69.9399 103.757 69.9599 103.787 69.9699 103.817C69.9699 103.847 69.9699 103.877 69.9699 103.907C69.9699 104.517 69.9699 105.127 69.9699 105.737C69.9699 105.767 69.9699 105.797 69.9699 105.827C69.9699 105.857 69.9399 105.887 69.9099 105.887C69.8199 105.887 69.74 105.887 69.65 105.887C68.43 105.887 67.2099 105.887 65.9899 105.887C65.7899 105.887 65.58 105.887 65.38 105.887C65.28 105.887 65.2199 105.797 65.1999 105.727C65.1899 105.657 65.1999 105.587 65.1999 105.527C65.1999 105.237 65.1999 104.947 65.1999 104.657C65.1999 104.637 65.1899 104.617 65.1699 104.617H65.15C65.13 104.627 65.1199 104.637 65.0999 104.657C65.0799 104.677 65.0599 104.697 65.0399 104.717C64.4099 105.357 63.65 105.757 62.76 105.907C61.86 106.057 60.99 105.987 60.14 105.657C59.82 105.527 59.52 105.377 59.25 105.177C58 104.297 57.2199 103.127 56.9499 101.617C56.8399 101.027 56.8099 100.427 56.8499 99.8269C56.9099 98.9569 57.1199 98.1269 57.5399 97.3569C57.7799 96.9169 58.06 96.5169 58.4 96.1569C58.78 95.7569 59.2199 95.4469 59.6999 95.1969C60.3199 94.8669 60.9799 94.6469 61.6699 94.5369C62.2299 94.4469 62.7899 94.4269 63.3499 94.5069C63.8999 94.5769 64.4299 94.7369 64.9299 94.9769C64.9999 95.0069 65.07 95.0369 65.14 95.0669C65.15 95.0669 65.1799 95.0569 65.1899 95.0469C65.1899 94.9769 65.1899 94.9169 65.1899 94.8469C65.1899 94.7169 65.1899 94.5969 65.1899 94.4669C65.1899 94.4269 65.23 94.3969 65.27 94.3969C65.34 94.3969 65.4099 94.3969 65.4699 94.3969C66.3499 94.4169 67.2299 94.4369 68.1099 94.4569C68.1699 94.4569 68.23 94.4569 68.28 94.4669C68.3 94.4669 68.3199 94.4869 68.3199 94.5069C68.3199 94.5569 68.3299 94.6069 68.3299 94.6469C68.3299 95.1169 68.3299 95.5969 68.3299 96.0669C68.3299 96.5269 68.3299 96.9969 68.3299 97.4569L68.3199 97.4469ZM65.1899 100.217C65.1899 100.127 65.1899 100.047 65.1899 99.9569C65.1899 99.7569 65.17 99.5469 65.13 99.3569C65 98.7469 64.71 98.2169 64.25 97.7869C63.79 97.3569 63.2499 97.1469 62.6199 97.1469C62.0999 97.1469 61.6299 97.2969 61.2099 97.6069C60.4699 98.1469 60.0599 98.8769 59.9699 99.7769C59.9299 100.187 59.94 100.587 60.02 100.987C60.18 101.747 60.5499 102.367 61.1599 102.857C61.5699 103.187 62.0399 103.347 62.5499 103.367C63.1599 103.387 63.69 103.187 64.15 102.787C64.83 102.197 65.2099 101.247 65.1899 100.477C65.1899 100.387 65.1899 100.307 65.1899 100.217Z" fill="#261957"/>
<path d="M44.97 101.247C44.97 99.8469 44.97 98.4369 44.97 97.0369C44.97 96.9469 44.97 96.8669 44.97 96.7769C44.97 96.7669 44.9499 96.7369 44.9299 96.7369C44.8699 96.7369 44.81 96.7269 44.76 96.7269C44.36 96.7269 43.9699 96.7269 43.5699 96.7269C43.4999 96.7269 43.43 96.7269 43.37 96.7269C43.35 96.7269 43.3199 96.6969 43.3099 96.6769C43.2999 96.6569 43.2999 96.6169 43.2999 96.5869C43.2999 95.9669 43.2999 95.3469 43.2999 94.7269C43.2999 94.6969 43.2999 94.6669 43.3099 94.6469C43.3099 94.6269 43.34 94.6169 43.35 94.6069C43.42 94.6069 43.4899 94.5969 43.5499 94.5969C44.9499 94.5969 46.36 94.5969 47.76 94.5969C47.82 94.5969 47.8799 94.5969 47.9299 94.5969C47.9599 94.5969 47.98 94.6169 48 94.6369C48.05 94.7069 48.09 94.7769 48.09 94.8769C48.09 95.1469 48.09 95.4169 48.09 95.6869C48.09 95.7369 48.09 95.7869 48.1 95.8269C48.1 95.8269 48.11 95.8369 48.12 95.8469C48.12 95.8469 48.14 95.8569 48.15 95.8469C48.21 95.7969 48.2699 95.7469 48.3199 95.6969C48.5799 95.4569 48.8599 95.2469 49.1599 95.0769C49.6999 94.7569 50.2799 94.5669 50.9099 94.5169C51.5199 94.4669 52.1099 94.5269 52.6799 94.7369C53.7299 95.1269 54.48 95.8469 54.96 96.8569C55.15 97.2569 55.2599 97.6769 55.3199 98.1069C55.3699 98.4169 55.38 98.7269 55.38 99.0369C55.38 101.227 55.38 103.417 55.38 105.607C55.38 105.657 55.38 105.707 55.38 105.747C55.38 105.777 55.3399 105.817 55.2999 105.817C55.2699 105.817 55.24 105.817 55.21 105.817C54.29 105.817 53.37 105.817 52.45 105.817C52.41 105.817 52.37 105.817 52.33 105.817C52.31 105.817 52.28 105.777 52.28 105.757C52.28 105.657 52.28 105.567 52.28 105.467C52.28 103.537 52.28 101.617 52.28 99.6869C52.28 99.3869 52.27 99.0869 52.23 98.7869C52.2 98.5369 52.1399 98.2969 52.0499 98.0569C52.0199 97.9869 51.99 97.9169 51.95 97.8469C51.69 97.3469 51.27 97.0669 50.71 96.9969C50.47 96.9669 50.23 96.9669 49.99 97.0069C49.49 97.0969 49.07 97.3369 48.72 97.7069C48.43 98.0069 48.2599 98.3769 48.1699 98.7769C48.1299 98.9569 48.1 99.1369 48.1 99.3269C48.1 99.4969 48.09 99.6769 48.09 99.8469C48.09 101.717 48.09 103.587 48.09 105.457C48.09 105.557 48.09 105.647 48.09 105.747C48.09 105.777 48.05 105.817 48.01 105.817C47.96 105.817 47.91 105.817 47.86 105.817C46.98 105.817 46.1 105.817 45.22 105.817C45.16 105.817 45.0999 105.817 45.0499 105.817C45.0199 105.817 44.99 105.787 44.99 105.757C44.99 105.667 44.99 105.587 44.99 105.497C44.99 104.087 44.99 102.667 44.99 101.257" fill="#261957"/>
<path d="M71.8199 101.247V97.0369C71.8199 96.9469 71.8199 96.8669 71.8199 96.7769C71.8199 96.7669 71.8 96.7369 71.78 96.7369C71.73 96.7369 71.68 96.7269 71.64 96.7269C71.26 96.7269 70.88 96.7269 70.51 96.7269C70.44 96.7269 70.3699 96.7269 70.3099 96.7269C70.2899 96.7269 70.25 96.6869 70.25 96.6769C70.25 96.6369 70.25 96.5969 70.25 96.5569C70.25 95.9569 70.25 95.3569 70.25 94.7569C70.25 94.7169 70.25 94.6769 70.26 94.6469C70.26 94.6269 70.2799 94.6169 70.2999 94.6069C70.3399 94.6069 70.3799 94.6069 70.4099 94.6069C71.8599 94.6069 73.32 94.6069 74.77 94.6069C74.8 94.6069 74.83 94.6069 74.86 94.6069C74.92 94.6069 74.9399 94.6269 74.9399 94.6969C74.9399 94.7869 74.95 94.8669 74.96 94.9569C74.96 95.2669 74.96 95.5769 74.96 95.8869C74.96 95.9369 74.96 95.9869 74.96 96.0369C74.96 96.0569 74.97 96.0669 74.98 96.0869C75 96.1069 75.01 96.0869 75.03 96.0869C75.08 96.0269 75.14 95.9769 75.2 95.9269C75.73 95.4169 76.34 95.0369 77.03 94.7769C77.4 94.6369 77.7899 94.5669 78.1899 94.5369C78.2399 94.5369 78.28 94.5669 78.28 94.6269C78.28 94.7069 78.28 94.7769 78.28 94.8569C78.28 95.6469 78.2799 96.4469 78.2899 97.2369C78.2899 97.2869 78.2899 97.3369 78.2899 97.3769C78.2899 97.4069 78.27 97.4369 78.24 97.4369C78.17 97.4369 78.0999 97.4369 78.0399 97.4369C77.8299 97.4369 77.61 97.4369 77.4 97.4469C77.16 97.4469 76.9199 97.5169 76.6899 97.5969C76.2599 97.7569 75.91 98.0269 75.65 98.3969C75.37 98.7869 75.2 99.2269 75.09 99.6969C74.99 100.127 74.96 100.557 74.96 100.997C74.96 101.817 74.96 102.647 74.96 103.467C74.96 104.157 74.96 104.847 74.96 105.527C74.96 105.607 74.96 105.687 74.96 105.757C74.96 105.777 74.9299 105.807 74.9099 105.817C74.8899 105.827 74.85 105.827 74.83 105.827C73.89 105.827 72.95 105.827 72.01 105.827C71.98 105.827 71.9499 105.827 71.9199 105.827C71.8899 105.827 71.86 105.797 71.86 105.777C71.86 105.687 71.86 105.607 71.86 105.517C71.86 104.107 71.86 102.687 71.86 101.277" fill="#261957"/>
<path d="M42.24 100.257C42.24 101.987 42.24 103.727 42.24 105.457C42.24 105.557 42.24 105.647 42.24 105.747C42.24 105.787 42.1999 105.817 42.1699 105.817C42.1499 105.817 42.13 105.817 42.11 105.817C41.17 105.817 40.2299 105.817 39.2899 105.817C39.2599 105.817 39.23 105.817 39.2 105.817C39.18 105.817 39.15 105.777 39.15 105.757C39.15 105.657 39.15 105.567 39.15 105.467C39.15 103.357 39.15 101.247 39.15 99.1369C39.15 98.4669 39.15 97.7969 39.15 97.1369C39.15 97.0569 39.15 96.9869 39.15 96.9069C39.15 96.8769 39.12 96.8569 39.09 96.8469C39.03 96.8469 38.9699 96.8369 38.9199 96.8369C38.5399 96.8369 38.1599 96.8369 37.7899 96.8369C37.7399 96.8369 37.69 96.8369 37.65 96.8269C37.64 96.8269 37.62 96.8069 37.61 96.7869C37.61 96.7569 37.61 96.7269 37.61 96.6969C37.61 96.0669 37.61 95.4369 37.61 94.8069C37.61 94.7769 37.61 94.7469 37.61 94.7169C37.61 94.6869 37.6399 94.6669 37.6699 94.6669C37.7299 94.6669 37.79 94.6669 37.84 94.6669C39.21 94.6669 40.59 94.6669 41.96 94.6669C42.02 94.6669 42.08 94.6669 42.13 94.6669C42.18 94.6669 42.25 94.7269 42.25 94.7769C42.25 94.8669 42.25 94.9469 42.25 95.0369V100.267" fill="#261957"/>
<path d="M24.08 94.7569C24.08 94.7569 24.02 94.7569 23.99 94.7569C23.02 94.7569 22.05 94.7569 21.08 94.7569C21.04 94.7569 21 94.7569 20.96 94.7569C20.93 94.7569 20.91 94.7769 20.89 94.8069C20.87 94.8569 20.8399 94.9169 20.8199 94.9669C20.2899 96.3169 19.77 97.6769 19.24 99.0269C18.94 99.7969 18.64 100.557 18.34 101.327C18.31 101.397 18.28 101.467 18.24 101.537C18.24 101.537 18.22 101.547 18.22 101.537C18.21 101.527 18.1899 101.507 18.1799 101.497C18.0899 101.277 17.9999 101.047 17.9099 100.827C17.1599 98.8869 16.4 96.9469 15.65 95.0069C15.63 94.9469 15.6 94.8769 15.58 94.8169C15.56 94.7669 15.52 94.7469 15.47 94.7469C15.39 94.7469 15.32 94.7469 15.24 94.7469H12.65C12.59 94.7469 12.53 94.7469 12.48 94.7469C12.33 94.7469 12.29 94.7569 12.36 94.9369C12.38 94.9869 12.3999 95.0469 12.4199 95.0969C13.2199 97.1469 14.0199 99.1869 14.8099 101.237C15.2899 102.477 15.76 103.707 16.2 104.957C16.3 105.227 16.38 105.507 16.48 105.787C16.53 105.927 16.54 106.077 16.52 106.217C16.46 106.547 16.3199 106.847 16.0699 107.077C15.9399 107.197 15.79 107.287 15.64 107.377C15.55 107.427 15.46 107.457 15.36 107.447C15.29 107.447 15.2199 107.447 15.1599 107.447C14.1699 107.447 13.18 107.447 12.2 107.447C9.91995 107.447 7.64999 107.447 5.37 107.447H0.0100098V110.177C4.37001 110.177 8.71996 110.177 13.08 110.177H15.35C15.46 110.177 15.5599 110.177 15.6699 110.177C15.8599 110.177 16.06 110.157 16.25 110.127C17.34 109.927 18.18 109.367 18.77 108.427C18.92 108.187 19.03 107.927 19.13 107.667C19.56 106.567 19.9899 105.467 20.4199 104.367C21.4399 101.777 22.46 99.1769 23.47 96.5869C23.67 96.0869 23.8699 95.5769 24.0599 95.0769C24.0799 95.0169 24.11 94.9469 24.13 94.8869C24.15 94.8169 24.1299 94.7669 24.0599 94.7669" fill="#261957"/>
</svg>
